GRF
version=1
nRows=18
nColumns=19
inDegrees=no
endheader
time	1_ground_force_vx	1_ground_force_vy	1_ground_force_vz	1_ground_force_px	1_ground_force_py	1_ground_force_pz	1_ground_torque_x	1_ground_torque_y	1_ground_torque_z	2_ground_force_vx	2_ground_force_vy	2_ground_force_vz	2_ground_force_px	2_ground_force_py	2_ground_force_pz	2_ground_torque_x	2_ground_torque_y	2_ground_torque_z
      0.00000000	     -5.61075933	    736.65472412	     -1.43146244	      0.14809866	      0.00000000	     -0.41031693	     -0.00000000	     -0.14025670	     -0.00000000	      0.00000000	      0.00000000	      0.00000000	      0.00000000	      0.00000000	      0.00000000	      0.00000000	      0.00000000	      0.00000000
      0.00100000	     -5.56014629	    737.13754393	     -1.50255095	      0.14805699	      0.00000000	     -0.41032886	      0.00000000	     -0.13105207	      0.00000000	      0.00000000	      0.00000000	      0.00000000	      0.00000000	      0.00000000	      0.00000000	      0.00000000	      0.00000000	      0.00000000
      0.00200000	     -5.52798102	    737.52891548	     -1.56487919	      0.14801970	      0.00000000	     -0.41034348	      0.00000000	     -0.12025790	      0.00000000	      0.00000000	      0.00000000	      0.00000000	      0.00000000	      0.00000000	      0.00000000	      0.00000000	      0.00000000	      0.00000000
      0.00300000	     -5.52524725	    737.82862913	     -1.60220382	      0.14799468	      0.00000000	     -0.41036099	      0.00000000	     -0.10692381	      0.00000000	      0.00000000	      0.00000000	      0.00000000	      0.00000000	      0.00000000	      0.00000000	      0.00000000	      0.00000000	      0.00000000
      0.00400000	     -5.55050725	    738.00227256	     -1.61434617	      0.14798036	      0.00000000	     -0.41037828	      0.00000000	     -0.08923543	      0.00000000	      0.00000000	      0.00000000	      0.00000000	      0.00000000	      0.00000000	      0.00000000	      0.00000000	      0.00000000	      0.00000000
      0.00500000	     -5.59159309	    738.17145888	     -1.59613269	      0.14797061	      0.00000000	     -0.41039314	      0.00000000	     -0.07130041	      0.00000000	      0.00000000	      0.00000000	      0.00000000	      0.00000000	      0.00000000	      0.00000000	      0.00000000	      0.00000000	      0.00000000
      0.00600000	     -5.62237248	    738.43049688	     -1.55822607	      0.14796271	      0.00000000	     -0.41040498	     -0.00000000	     -0.05683234	     -0.00000000	      0.00000000	      0.00000000	      0.00000000	      0.00000000	      0.00000000	      0.00000000	      0.00000000	      0.00000000	      0.00000000
      0.00700000	     -5.62593899	    738.74508691	     -1.51478299	      0.14795174	      0.00000000	     -0.41041748	     -0.00000000	     -0.04558495	     -0.00000000	      0.00000000	      0.00000000	      0.00000000	      0.00000000	      0.00000000	      0.00000000	      0.00000000	      0.00000000	      0.00000000
      0.00800000	     -5.60127041	    739.04850099	     -1.47053781	      0.14794259	      0.00000000	     -0.41043279	     -0.00000000	     -0.03332947	     -0.00000000	      0.00000000	      0.00000000	      0.00000000	      0.00000000	      0.00000000	      0.00000000	      0.00000000	      0.00000000	      0.00000000
      0.00900000	     -5.55468661	    739.28072994	     -1.43651684	      0.14793305	      0.00000000	     -0.41045523	     -0.00000000	     -0.02073790	     -0.00000000	      0.00000000	      0.00000000	      0.00000000	      0.00000000	      0.00000000	      0.00000000	      0.00000000	      0.00000000	      0.00000000
      0.01000000	     -5.49912996	    739.37482236	     -1.41176963	      0.14792528	      0.00000000	     -0.41048828	      0.00000000	     -0.00710105	      0.00000000	      0.00000000	      0.00000000	      0.00000000	      0.00000000	      0.00000000	      0.00000000	      0.00000000	      0.00000000	      0.00000000
      0.01100000	     -5.43581028	    739.39978788	     -1.39541490	      0.14791964	      0.00000000	     -0.41053002	      0.00000000	      0.00535831	      0.00000000	      0.00000000	      0.00000000	      0.00000000	      0.00000000	      0.00000000	      0.00000000	      0.00000000	      0.00000000	      0.00000000
      0.01200000	     -5.35939007	    739.36962688	     -1.39472369	      0.14791587	      0.00000000	     -0.41057343	      0.00000000	      0.01736923	      0.00000000	      0.00000000	      0.00000000	      0.00000000	      0.00000000	      0.00000000	      0.00000000	      0.00000000	      0.00000000	      0.00000000
      0.01300000	     -5.27734328	    739.30864088	     -1.40579421	      0.14791712	      0.00000000	     -0.41060478	      0.00000000	      0.02860992	      0.00000000	      0.00000000	      0.00000000	      0.00000000	      0.00000000	      0.00000000	      0.00000000	      0.00000000	      0.00000000	      0.00000000
      0.01400000	     -5.20243225	    739.23963920	     -1.42979199	      0.14792093	      0.00000000	     -0.41061449	      0.00000000	      0.03781759	      0.00000000	      0.00000000	      0.00000000	      0.00000000	      0.00000000	      0.00000000	      0.00000000	      0.00000000	      0.00000000	      0.00000000
      0.01500000	     -5.14841432	    739.14114852	     -1.45144966	      0.14792352	      0.00000000	     -0.41060931	      0.00000000	      0.04302075	      0.00000000	      0.00000000	      0.00000000	      0.00000000	      0.00000000	      0.00000000	      0.00000000	      0.00000000	      0.00000000	      0.00000000
      0.01600000	     -5.10159899	    738.91297935	     -1.45249646	      0.14793304	      0.00000000	     -0.41060310	     -0.00000000	      0.04992040	     -0.00000000	      0.00000000	      0.00000000	      0.00000000	      0.00000000	      0.00000000	      0.00000000	      0.00000000	      0.00000000	      0.00000000
      0.01700000	     -5.04892060	    738.61547131	     -1.42369496	      0.14794309	      0.00000000	     -0.41060842	     -0.00000000	      0.05918158	     -0.00000000	      0.00000000	      0.00000000	      0.00000000	      0.00000000	      0.00000000	      0.00000000	      0.00000000	      0.00000000	      0.00000000
